PathFileType	4	(X/Y/Z)	..\data\2014007\dynamic\2014007_C4_04.trc
DataRate	CameraRate	NumFrames	NumMarkers	Units	OrigDataRate	OrigDataStartFrame	OrigNumFrames
100.000000	100.000000	4	52	mm	100.000000	141	188
Frame#	Time	L_IAS			L_IPS			R_IPS			R_IAS			L_FTC			L_FLE			L_FME			L_FAX			L_TTC			L_FAL			L_TAM			L_FCC			L_FM1			L_FM2			L_FM5			R_FTC			R_FLE			R_FME			R_FAX			R_TTC			R_FAL			R_TAM			R_FCC			R_FM1			R_FM2			R_FM5			CV7			TV10			SXS			SJN			L_SIA			L_SRS			L_SAA			L_SAE			L_HLE			L_HME			L_UOA			L_RSP			L_UHE			L_HM2			L_HM5			R_SIA			R_SRS			R_SAA			R_SAE			R_HLE			R_HME			R_UOA			R_RSP			R_UHE			R_HM2			R_HM5			
		X1	Y1	Z1	X2	Y2	Z2	X3	Y3	Z3	X4	Y4	Z4	X5	Y5	Z5	X6	Y6	Z6	X7	Y7	Z7	X8	Y8	Z8	X9	Y9	Z9	X10	Y10	Z10	X11	Y11	Z11	X12	Y12	Z12	X13	Y13	Z13	X14	Y14	Z14	X15	Y15	Z15	X16	Y16	Z16	X17	Y17	Z17	X18	Y18	Z18	X19	Y19	Z19	X20	Y20	Z20	X21	Y21	Z21	X22	Y22	Z22	X23	Y23	Z23	X24	Y24	Z24	X25	Y25	Z25	X26	Y26	Z26	X27	Y27	Z27	X28	Y28	Z28	X29	Y29	Z29	X30	Y30	Z30	X31	Y31	Z31	X32	Y32	Z32	X33	Y33	Z33	X34	Y34	Z34	X35	Y35	Z35	X36	Y36	Z36	X37	Y37	Z37	X38	Y38	Z38	X39	Y39	Z39	X40	Y40	Z40	X41	Y41	Z41	X42	Y42	Z42	X43	Y43	Z43	X44	Y44	Z44	X45	Y45	Z45	X46	Y46	Z46	X47	Y47	Z47	X48	Y48	Z48	X49	Y49	Z49	X50	Y50	Z50	X51	Y51	Z51	X52	Y52	Z52	

142	1.41	311.4167785644532	905.210144042969	180.7343750000001	110.1139144897461	977.4702148437502	267.4767761230469	114.6334838867187	986.7052001953127	348.6757812500001	308.9313659667969	936.3403320312502	435.6746520996095	243.9597320556641	872.9188232421877	120.9802932739258	193.6544342041016	450.3511047363282	153.1519775390626	206.2567596435547	428.9304809570314	273.2121887207032	141.5600128173828	406.3826599121095	152.1326599121094	181.6022644042969	362.4852294921876	206.7615509033204	-105.0367736816407	169.3569641113282	198.9991302490235	-67.26298522949223	163.0616455078125	273.5551452636719	-155.8702545166016	179.2806701660157	255.4932556152344	-43.68717575073246	38.75638961791993	273.8653564453126	-36.11197280883793	46.45693588256837	222.1907958984376	-73.77914428710942	52.56754684448244	182.1867828369141	249.5664825439453	881.6214599609377	499.5415954589845	355.6315307617188	475.3011169433595	429.186248779297	333.4548950195312	473.8448181152345	298.8617553710939	338.7160034179688	404.5523376464845	428.9512023925783	393.8215637207032	409.9358825683595	369.9056091308595	333.5732727050781	56.936092376709	382.3546142578126	347.5456237792969	77.71020507812501	296.6130371093751	282.0793151855469	22.28060150146485	328.863983154297	470.8510437011719	20.18323707580567	304.7105407714845	476.9714355468751	36.50553131103516	356.6171264648439	436.7649841308594	23.72583961486817	403.5271911621095	147.3249664306641	1425.929077148438	293.8599548339844	103.2498092651367	1187.497436523438	301.7132263183594	275.6430969238281	1347.023559570313	289.7363281250001	350.9778747558594	1177.371215820313	293.7746582031251	91.11602783203124	1204.884887695313	201.5013275146485	107.8626556396484	1346.711669921875	207.7993774414063	139.334716796875	1350.16015625	136.5208587646485	190.7918701171875	1355.604370117188	108.1074142456055	200.1756439208985	1030.655883789063	45.72523498535159	179.0291290283203	1014.36767578125	125.9477233886719	167.9402313232422	1006.753723144531	75.50028991699222	345.0229797363282	818.4539794921877	74.87451171875006	302.0618286132813	809.110290527344	13.69797134399418	400.6713256835939	745.5999755859376	62.15834426879889	313.4501342773438	725.3569946289064	14.54390716552739	86.96273040771482	1210.386840820313	392.886688232422	109.5995101928711	1341.190307617188	392.1560363769532	156.1182403564453	1362.958618164063	459.0981750488282	199.6420593261719	1367.453735351563	479.7565002441407	178.1342010498047	1052.879516601563	566.7138061523439	141.6077880859375	1041.213134765625	489.2828979492189	137.3769836425781	1027.619750976563	540.7947998046876	284.0655822753906	811.1530761718752	545.0944824218751	237.648941040039	816.2981567382815	609.2633666992189	309.1053771972656	730.7159423828126	551.1345825195314	237.7379913330078	740.2078857421876	620.0501098632814	
143	1.42	320.3297119140626	906.3770751953127	181.9462585449219	119.2784576416016	978.6978759765627	268.9334106445313	124.1128311157226	988.2039184570315	350.0755920410157	318.6970520019531	937.7752075195315	436.9280090332033	252.9654083251953	873.735778808594	122.5014114379883	212.8020324707032	450.4160461425782	152.0628051757813	228.2719421386719	427.8328247070314	271.7554016113282	161.2692413330078	406.8208007812501	151.0131072998047	200.6327209472657	362.4527893066407	205.361312866211	-89.81626129150395	175.1471710205078	199.1053619384766	-51.293628692627	167.5307159423828	273.2909851074219	-139.8798370361329	186.2655792236328	256.2339172363282	-31.68333625793461	41.75275802612305	272.1821594238282	-24.42704772949222	49.31170654296876	220.8885192871094	-61.93625640869144	57.20339584350587	181.7394409179688	259.1796264648438	883.1966552734377	500.980194091797	359.0929260253906	475.0711975097657	430.4118041992189	336.7301635742188	474.0090332031251	299.994354248047	341.2149963378906	404.3857727050782	429.9813537597658	396.6185302734376	409.4004516601564	371.0572204589845	333.5338745117188	56.74161911010744	382.6389160156251	347.5997924804688	77.82696533203126	296.997528076172	282.0415954589844	22.22507095336914	328.9737548828126	470.7335205078126	20.36405754089356	304.8003845214845	477.1543273925782	36.43890762329102	356.9089965820314	436.8672180175782	23.43065452575684	404.1723022460939	157.0638122558594	1427.29833984375	295.4201354980469	112.8972778320312	1188.930297851563	303.4496765136719	285.4888916015625	1348.459228515625	290.6343994140626	360.410888671875	1178.60107421875	294.283172607422	100.2718353271484	1206.326049804688	203.3617553710938	117.0929336547852	1348.165405273438	209.6307830810548	148.0825500488281	1351.713623046875	138.1575012207032	199.4134216308594	1357.2099609375	109.4364852905274	204.8690948486329	1032.1123046875	47.76169586181644	184.0678863525391	1016.394226074219	128.1118316650391	172.3947143554688	1009.098205566406	77.60434722900393	344.4685668945313	816.2630615234377	75.54039001464849	301.1021423339844	808.3254394531252	14.59186744689945	397.7318115234376	741.6541748046876	62.60015106201178	309.8987731933594	724.1712036132814	15.33668136596684	97.28001403808592	1211.9033203125	394.9826049804689	119.9545059204101	1342.656372070313	394.0409545898439	166.9783630371093	1364.381591796875	460.6675109863282	210.7400817871094	1368.839111328125	480.9766540527345	190.1033172607422	1054.42919921875	568.6251220703126	152.7771606445312	1042.627685546875	491.6237792968751	149.1336212158203	1029.018798828125	543.1796264648439	296.30908203125	812.9417114257815	546.2735595703126	250.7917022705078	818.1752929687502	610.8758544921876	321.5539245605469	732.5541381835939	552.0389404296876	250.8139495849609	741.9351806640626	621.6428833007814	
144	1.43	329.0579833984376	907.418640136719	183.0509033203126	128.2568359375	979.8916015625002	270.3430175781251	133.3930053710937	989.6209716796877	351.4432373046876	328.2178039550781	938.927673339844	438.1604003906252	261.7980651855469	874.5650024414065	123.8924179077149	231.9903869628907	450.7347106933595	151.1256866455079	249.9786224365235	427.2311096191407	270.5481872558595	181.1310424804688	407.4029235839845	150.0718688964844	219.979736328125	362.7709045410157	204.2021636962891	-73.51680755615239	180.223861694336	199.278060913086	-34.32568359375004	171.4963531494141	273.1505737304688	-122.9989547729493	191.9875640869141	257.0024414062501	-17.33987426757816	44.80437469482423	270.2695922851563	-10.49660301208499	52.42670059204103	219.3280487060547	-48.04966735839847	61.77743911743165	181.0646362304688	268.5443115234375	884.5588378906252	502.3338623046877	362.3612670898438	474.8319091796876	431.5349121093752	339.8336791992188	474.1491699218751	301.0379943847657	343.5600280761719	404.2149963378907	430.9282836914064	399.2362365722657	408.8601684570314	372.136932373047	333.4718933105469	56.54980468750001	382.9013061523439	347.6263427734375	77.90121459960939	297.357391357422	281.9665222167969	22.16037178039551	329.071746826172	470.5917053222657	20.48189544677735	304.9204406738282	477.2486572265626	36.33346939086915	357.1712036132814	436.9280090332032	23.12995338439942	404.7418518066408	166.7619018554688	1428.613525390625	296.9143676757813	122.419059753418	1190.327514648438	305.1639099121094	295.2868957519531	1349.798828125	291.4812622070314	369.7128295898438	1179.668579101563	294.6860351562501	109.2909927368164	1207.681274414063	205.2810058593751	126.240104675293	1349.537231445313	211.4400177001954	156.7412567138672	1353.142211914063	139.7621612548829	207.9197998046876	1358.6474609375	110.7118530273438	209.4497680664063	1033.501098632813	49.7301292419434	189.0019989013672	1018.275817871094	130.1499481201172	176.8378448486328	1011.350830078125	79.63165283203129	343.7603759765626	814.1372070312502	76.25519561767584	300.0516967773438	807.621276855469	15.48910903930668	394.5958862304689	737.8377075195314	63.17016601562506	306.2514648437501	723.1436767578126	16.09898757934575	107.4715576171875	1213.380249023438	397.047576904297	130.2240295410156	1344.079345703125	395.873992919922	177.7662658691406	1365.736328125	462.1856079101564	221.7738800048828	1370.141235351563	482.1438598632814	202.1445159912109	1055.904907226563	570.5789184570314	163.8720550537109	1043.92724609375	494.1162109375001	160.9554748535156	1030.289428710938	545.7207641601564	308.705322265625	814.741638183594	547.4335937500001	264.1122131347656	819.9996337890627	612.4795532226564	334.2741394042969	734.4592285156251	552.9040527343751	264.1825256347656	743.6198730468751	623.2144775390626	
145	1.44	337.6390686035157	908.3646240234377	184.0554199218751	137.0744934082031	981.0592041015627	271.6951293945313	142.4894409179687	990.960144042969	352.7646179199219	337.5018310546875	939.816345214844	439.3641662597658	270.4913940429688	875.425964355469	125.1495742797852	251.1402740478516	451.3498535156251	150.3511962890626	271.2346496582031	427.1730041503907	269.607147216797	201.0092010498047	408.1760559082032	149.3336181640626	239.5891723632813	363.4662780761719	203.2790679931641	-56.20710372924808	184.4731903076172	199.5253448486329	-16.40819168090824	174.8616485595703	273.1334838867188	-105.3043212890626	196.3338928222657	257.7997741699219	-0.689896821975741	47.7640495300293	268.2033386230469	5.65927886962888	55.65846633911134	217.5731506347657	-32.12942123413089	66.11303710937501	180.1932220458985	277.6541442871094	885.7070312500002	503.5842285156252	365.4745178222656	474.5879516601564	432.5484619140627	342.8318176269531	474.2683410644532	301.9827880859376	345.7984619140625	404.0493164062501	431.7851867675783	401.7192382812501	408.3221435546876	373.1414489746095	333.4120178222656	56.37091445922853	383.1417236328126	347.6495361328125	77.94467926025392	297.6926269531251	281.8683166503906	22.11223411560059	329.1633300781251	470.4456481933594	20.54063415527344	305.0579528808595	477.2864074707032	36.18956756591798	357.4025268554689	436.9682312011719	22.82561683654786	405.2368469238283	176.4141845703125	1429.878295898438	298.3359375000001	131.8183898925781	1191.690185546875	306.8436584472657	305.0308837890625	1351.04443359375	292.2821655273439	378.8972473144531	1180.589233398438	294.9886779785157	118.1821823120117	1208.95703125	207.2466735839845	135.3124084472656	1350.8330078125	213.2127075195313	165.3350830078125	1354.453369140625	141.3261871337891	216.3334503173829	1359.919921875	111.931251525879	213.9073638916016	1034.82373046875	51.64108657836918	193.8331298828125	1020.014526367188	132.0692749023438	181.2671203613282	1013.504333496094	81.59630584716801	342.9371643066407	812.0991210937502	77.01940917968756	298.9198608398438	806.999694824219	16.39812469482426	391.3200683593751	734.1898193359376	63.85113525390631	302.5483398437501	722.2836303710939	16.83424568176273	117.5217742919922	1214.82275390625	399.0643615722657	140.3928833007812	1345.4619140625	397.6422424316407	188.4554443359375	1367.0302734375	463.6446228027345	232.7076416015625	1371.367065429688	483.2574157714845	214.2445068359375	1057.301513671875	572.5402832031251	174.9128265380859	1045.107666015625	496.7109985351564	172.8356781005859	1031.43408203125	548.3646850585939	321.2455444335938	816.545593261719	548.5761718750001	277.5756225585938	821.7670898437502	614.0654907226564	347.25244140625	736.4213256835939	553.7498168945314	277.8156433105469	745.2680053710939	624.7698364257814	
